<?xml version="1.0" encoding="UTF-8"?>
<svg xmlns="http://www.w3.org/2000/svg" xmlns:xlink="http://www.w3.org/1999/xlink" width="375pt" height="374.999991pt" viewBox="0 0 375 374.999991" version="1.2">
<defs>
<clipPath id="clip1">
  <path d="M 37.5 37.5 L 315 37.5 L 315 338 L 37.5 338 Z M 37.5 37.5 "/>
</clipPath>
</defs>
<g id="surface1">
<g clip-path="url(#clip1)" clip-rule="nonzero">
<path style=" stroke:none;fill-rule:nonzero;fill:rgb(86.268616%,7.839966%,23.529053%);fill-opacity:1;" d="M 150.800781 259.488281 C 156.679688 263.929688 162.984375 271.089844 154.671875 289.714844 C 146.359375 308.339844 146.933594 328.109375 169.867188 335.414062 C 192.800781 342.722656 205.273438 320.230469 205.273438 320.230469 C 194.089844 320.800781 180.902344 318.511719 174.882812 302.179688 C 168.863281 285.847656 179.183594 274.960938 166.28125 265.214844 C 173.164062 267.796875 177.175781 275.246094 177.894531 287.277344 C 178.609375 299.3125 184.34375 312.351562 202.117188 315.214844 C 219.890625 318.082031 238.527344 324.671875 237.523438 337.421875 C 241.679688 326.246094 241.96875 313.640625 232.503906 302.035156 C 225.480469 307.191406 207.707031 304.902344 199.539062 291.578125 C 191.367188 278.253906 189.214844 269.226562 180.472656 263.929688 C 190.363281 267.652344 196.8125 277.253906 201.976562 284.269531 C 207.132812 291.289062 212.582031 296.878906 226.488281 296.59375 C 217.453125 292.867188 205.414062 279.6875 205.84375 262.78125 C 191.652344 255.042969 166.28125 253.898438 150.800781 259.488281 Z M 114.679688 294.441406 C 108.320312 315.574219 124 327.535156 138.90625 333.839844 C 124.859375 325.960938 121.132812 307.910156 125.71875 298.167969 C 130.304688 288.425781 133.601562 280.832031 133.742188 275.960938 C 133.742188 275.960938 137.039062 280.6875 133.027344 293.871094 C 129.015625 307.046875 130.445312 319.511719 140.050781 326.964844 C 134.171875 316.933594 134.605469 304.902344 146.074219 290.429688 C 157.539062 275.960938 152.523438 267.796875 148.222656 263.5 C 149.65625 274.53125 140.195312 270.949219 135.320312 263.929688 C 130.445312 256.90625 121.5625 257.335938 115.253906 259.628906 C 133.601562 260.917969 119.984375 276.820312 114.679688 294.441406 Z M 258.820312 58.941406 C 262.226562 70.167969 269.652344 124.089844 215.898438 160.976562 C 235.152344 153.15625 271.054688 123.890625 281.082031 91.414062 C 279.878906 80.992188 262.027344 61.546875 258.820312 58.941406 Z M 197.445312 181.019531 C 206.46875 183.425781 253 202.46875 272.660156 256.394531 C 270.050781 240.960938 280.480469 229.332031 288.101562 246.773438 C 295.726562 264.210938 295.324219 277.445312 314.777344 282.65625 C 304.949219 273.835938 301.941406 261.605469 303.347656 245.570312 C 304.75 229.53125 299.933594 209.6875 285.894531 204.074219 C 290.308594 209.488281 292.714844 214.5 287.703125 214.898438 C 282.6875 215.300781 271.855469 197.058594 288.503906 197.058594 C 278.675781 189.441406 240.367188 180.21875 215.097656 181.019531 C 246.585938 188.039062 275.464844 206.480469 275.464844 217.707031 C 275.464844 228.933594 258.617188 211.492188 247.1875 203.875 C 235.753906 196.257812 213.492188 184.027344 197.445312 181.019531 Z M 258.617188 177.210938 C 275.246094 183.445312 301.339844 181.019531 304.75 173.605469 C 274.265625 184.429688 262.027344 158.167969 273.261719 153.960938 C 284.492188 149.75 300.738281 157.367188 302.941406 164.984375 C 332.828125 132.511719 298.933594 81.996094 287.703125 74.574219 C 303.746094 125.695312 213.492188 171.398438 205.667969 174.40625 C 218.105469 169.996094 240.96875 170.597656 258.617188 177.210938 Z M 139.078125 118.476562 C 159.9375 116.675781 170.570312 105.449219 171.371094 96.425781 C 169.363281 101.839844 159.136719 108.65625 157.53125 101.636719 C 155.925781 94.621094 161.945312 92.015625 184.808594 87.40625 C 207.671875 82.796875 220.109375 67.960938 219.710938 55.53125 C 214.492188 65.757812 195.640625 73.773438 177.988281 76.78125 C 160.339844 79.789062 141.886719 84.398438 139.882812 94.824219 C 139.882812 94.824219 148.503906 90.613281 148.503906 99.632812 C 148.503906 108.65625 130.453125 111.863281 128.648438 102.242188 C 126.84375 92.617188 134.0625 84.199219 150.511719 75.78125 C 166.957031 67.359375 173.578125 57.136719 170.167969 49.320312 C 169.964844 57.738281 158.535156 62.949219 133.261719 74.574219 C 107.992188 86.203125 97.960938 121.882812 101.574219 135.316406 C 103.980469 128.5 118.21875 120.28125 139.078125 118.476562 Z M 180.996094 97.027344 C 194.035156 104.042969 212.285156 149.347656 187.617188 177.011719 C 207.070312 166.589844 242.371094 135.917969 252.601562 85.199219 C 246.585938 97.429688 236.152344 111.863281 221.511719 111.863281 C 206.871094 111.863281 219.105469 91.414062 228.132812 87.605469 C 237.160156 83.796875 239.566406 93.019531 230.738281 99.632812 C 244.179688 93.820312 257.816406 66.355469 241.972656 37.492188 C 243.175781 46.3125 225.125 93.21875 180.996094 97.027344 Z M 194.238281 137.722656 C 190.824219 147.542969 181.800781 175.207031 149.910156 183.027344 C 168.363281 182.222656 259.820312 217.503906 255.609375 301.496094 C 263.433594 291.277344 269.25 273.835938 266.640625 260.605469 C 256.8125 234.746094 222.316406 197.660156 176.585938 177.613281 C 189.625 166.988281 194.636719 148.746094 194.238281 137.722656 Z M 144.925781 190.15625 C 154.566406 194.421875 167.511719 205.433594 171.78125 222.914062 C 176.046875 240.390625 184.171875 252.503906 203.453125 254.429688 C 195.054688 250.851562 179.769531 234.199219 184.449219 215.757812 C 182.519531 212.589844 172.054688 201.441406 168.476562 199.515625 C 192.160156 209.011719 208.402344 227.847656 204.691406 233.097656 C 201.386719 237.777344 192.847656 229.242188 191.472656 224.976562 C 189.683594 232.824219 201.277344 246.832031 213.644531 259.113281 C 234.988281 280.304688 246.417969 313.476562 246.417969 324.488281 C 249.3125 311.824219 252.890625 266.542969 232.097656 246.585938 C 235.402344 252.367188 236.640625 258.421875 232.511719 260.625 C 228.378906 262.828125 222.597656 254.015625 217.636719 239.429688 C 212.679688 224.839844 195.605469 197.035156 144.925781 190.15625 Z M 117.933594 246.585938 C 120.277344 249.335938 112.976562 253.191406 110.910156 256.769531 C 110.910156 256.769531 120.550781 249.75 137.902344 250.714844 C 155.253906 251.675781 171.503906 247.273438 173.984375 243.144531 C 169.164062 241.90625 166.269531 236.8125 165.304688 227.042969 C 164.34375 217.269531 158.144531 202.265625 143.273438 198.824219 C 171.503906 216.855469 152.777344 240.804688 135.148438 242.457031 C 123.359375 243.5625 123.71875 239.015625 125.09375 236.8125 C 94.664062 245.070312 96.453125 268.882812 96.453125 277.691406 C 98.515625 252.367188 115.59375 243.832031 117.933594 246.585938 Z M 77.035156 237.5 C 77.449219 242.871094 80.339844 262.277344 91.769531 273.839844 C 85.847656 264.753906 83.371094 245.347656 84.746094 237.5 C 93.421875 237.089844 100.722656 228.417969 100.171875 220.433594 C 99.066406 238.464844 72.628906 229.378906 71.9375 227.316406 C 72.351562 230.070312 73.589844 232.410156 77.035156 237.5 Z M 37.648438 194.144531 C 38.476562 199.925781 48.667969 210.386719 55.6875 216.167969 C 55.828125 219.332031 58.304688 230.207031 64.089844 233.375 C 57.617188 207.773438 91.496094 208.1875 94.386719 210.113281 C 89.015625 199.101562 70.5625 204.742188 64.640625 207.222656 C 58.71875 209.699219 55.136719 206.394531 54.3125 205.296875 C 53.488281 204.191406 51.007812 200.339844 46.875 197.035156 C 42.746094 193.734375 43.019531 191.117188 45.910156 185.339844 C 45.910156 185.339844 40.402344 187.265625 37.648438 194.144531 Z M 78.414062 159.738281 C 78.414062 159.738281 74.003906 155.332031 75.382812 149.414062 C 80.339844 150.652344 94.664062 145.007812 105.128906 137.164062 C 115.59375 129.320312 126.609375 129.730469 129.640625 130.28125 C 132.667969 130.832031 138.148438 132.078125 140.242188 130.007812 C 152.363281 118.03125 180.320312 111.015625 187.539062 113.261719 C 191.472656 152.855469 162.925781 172.882812 155.164062 172.882812 C 178.132812 159.878906 177.503906 136.0625 176.957031 125.089844 C 174.054688 124.308594 164.023438 128.851562 156.027344 134.726562 C 148.03125 140.605469 132.195312 145.460938 127.804688 146.167969 C 134.390625 137.46875 124.828125 137.234375 118.632812 145.929688 C 113.339844 153.367188 106.25 156.980469 100.679688 158.46875 C 105.230469 161.601562 113.460938 159.25 117.09375 157.710938 C 116.84375 159.464844 110.574219 166.980469 87.507812 168.484375 C 64.441406 169.988281 56.667969 176.503906 49.648438 183.519531 C 54.214844 170.414062 71.664062 161.527344 78.414062 159.738281 "/>
</g>
</g>
</svg>
