<?xml version="1.0" standalone="no"?>
<!DOCTYPE svg PUBLIC "-//W3C//DTD SVG 20010904//EN"
 "http://www.w3.org/TR/2001/REC-SVG-20010904/DTD/svg10.dtd">
<svg version="1.0" xmlns="http://www.w3.org/2000/svg"
 width="500.000000pt" height="500.000000pt" viewBox="0 0 500.000000 500.000000"
 preserveAspectRatio="xMidYMid meet">
<metadata>
Created by potrace 1.11, written by Peter Selinger 2001-2013
</metadata>
<g transform="translate(0.000000,500.000000) scale(0.100000,-0.100000)"
fill="#000000" stroke="none">
<path d="M2254 4865 c-741 -77 -1408 -502 -1794 -1145 -421 -700 -450 -1572
-75 -2305 349 -683 1008 -1152 1785 -1271 159 -25 501 -25 660 0 284 43 595
148 824 278 663 376 1095 1006 1201 1752 104 726 -150 1483 -669 2001 -516
514 -1217 764 -1932 690z m-36 -1408 l182 -192 -2 -135 c-3 -149 -20 -204 -68
-227 -74 -34 -146 39 -187 190 -16 59 -28 75 -128 186 l-110 121 -260 0 -260
0 -137 -218 -138 -217 0 -416 0 -415 138 -217 137 -216 257 -1 257 0 108 121
c108 121 108 122 123 198 25 122 69 181 135 181 75 0 118 -97 119 -266 l1
-100 -175 -192 -175 -192 -391 0 -392 0 -206 292 -206 291 0 519 0 518 206
290 206 290 392 0 391 0 183 -193z m1727 -4 l187 -198 -4 -125 c-7 -176 -31
-230 -105 -230 -60 0 -110 64 -142 181 -23 82 -16 72 -145 212 l-99 107 -262
0 -262 0 -137 -215 -136 -216 0 -420 0 -421 137 -214 137 -214 261 0 261 0
107 123 c59 67 109 131 111 142 21 114 29 144 51 176 33 51 91 70 130 45 49
-32 84 -155 85 -297 0 -47 0 -47 -180 -243 l-181 -196 -387 0 -387 0 -202 287
-203 287 0 527 0 528 203 285 202 286 387 0 386 0 187 -197z"/>
</g>
</svg>
