<?xml version="1.0" standalone="no"?>
<!DOCTYPE svg PUBLIC "-//W3C//DTD SVG 20010904//EN"
 "http://www.w3.org/TR/2001/REC-SVG-20010904/DTD/svg10.dtd">
<svg version="1.0" xmlns="http://www.w3.org/2000/svg"
 width="700.000000pt" height="700.000000pt" viewBox="0 0 700.000000 700.000000"
 preserveAspectRatio="xMidYMid meet">
<metadata>
Created by potrace 1.11, written by Peter Selinger 2001-2013
</metadata>
<g transform="translate(0.000000,700.000000) scale(0.100000,-0.100000)"
fill="#000000" stroke="none">
<path d="M4422 5913 c-63 -257 -269 -545 -504 -705 -123 -83 -351 -168 -450
-168 l-30 0 53 -54 c91 -91 167 -240 216 -423 24 -87 27 -117 27 -273 1 -153
-2 -185 -22 -253 -25 -89 -69 -180 -119 -250 -19 -27 -32 -51 -30 -53 8 -8
179 112 278 194 282 237 516 564 659 922 41 104 114 349 106 358 -3 2 -15 -16
-27 -40 -59 -116 -161 -239 -248 -297 -80 -54 -144 -76 -223 -76 -57 0 -70 4
-92 24 -36 34 -35 90 4 168 61 121 167 213 246 213 53 0 74 -20 74 -70 0 -29
-9 -50 -36 -85 l-35 -47 44 31 c95 65 178 203 218 360 18 71 21 104 17 220 -4
119 -9 148 -37 231 -17 52 -40 110 -49 128 l-18 34 -22 -89z"/>
<path d="M3246 5784 c-21 -82 -107 -142 -438 -303 -249 -121 -335 -175 -409
-259 -65 -73 -149 -208 -192 -307 -68 -158 -111 -373 -93 -470 l7 -38 19 30
c65 107 294 206 554 238 236 30 364 78 467 173 51 47 109 136 109 167 0 6 -24
-12 -54 -41 -75 -72 -139 -84 -164 -28 -20 43 -14 74 21 108 43 43 115 69 340
122 103 24 222 57 263 74 210 84 370 254 390 415 l6 50 -32 -43 c-63 -83 -229
-181 -409 -241 -52 -18 -176 -48 -275 -67 -338 -66 -469 -115 -555 -209 -52
-57 -54 -80 -7 -71 50 9 82 -7 96 -48 16 -51 5 -89 -40 -129 -103 -94 -278
-56 -281 61 -2 70 3 97 27 144 47 92 121 151 398 311 191 112 306 267 268 366
l-9 25 -7 -30z"/>
<path d="M4725 5630 c33 -168 35 -390 5 -565 -49 -288 -179 -556 -377 -780
-67 -77 -163 -164 -293 -268 l-35 -28 55 27 c270 130 654 481 836 766 55 85
126 227 149 297 20 63 13 100 -37 191 -72 130 -315 419 -303 360z"/>
<path d="M5201 5373 c20 -49 23 -240 5 -321 -63 -298 -337 -633 -769 -940
-122 -87 -311 -204 -442 -274 -64 -35 -97 -57 -80 -54 250 44 500 25 769 -61
153 -48 240 -62 389 -63 184 0 339 38 386 94 17 20 9 20 -54 0 -79 -26 -245
-23 -317 5 -120 47 -198 140 -198 236 0 38 5 52 28 75 98 98 398 32 502 -111
l29 -40 40 53 c100 133 151 291 151 469 0 278 -156 655 -370 892 -66 72 -86
84 -69 40z"/>
<path d="M3315 4754 c-182 -39 -382 -127 -505 -221 l-75 -58 -65 5 c-246 17
-330 -1 -498 -113 -171 -112 -366 -197 -456 -197 -24 0 -26 -3 -26 -42 0 -27
9 -59 24 -84 l24 -42 -67 -26 c-149 -58 -315 -193 -375 -305 l-29 -54 69 57
c132 109 263 154 529 181 191 19 318 48 403 91 63 31 111 68 101 78 -2 3 -29
-2 -59 -10 -65 -17 -138 -18 -177 -3 -27 10 -27 10 32 34 87 36 162 91 227
170 82 99 141 136 181 113 21 -11 21 -30 2 -68 -20 -39 -14 -39 120 5 138 45
251 98 352 167 109 73 225 130 279 136 l44 5 0 -81 c0 -297 -96 -512 -295
-660 -50 -38 -55 -44 -30 -38 120 29 305 212 393 389 76 155 121 375 106 524
l-7 63 -76 -1 c-42 0 -107 -7 -146 -15z"/>
<path d="M3615 4268 c-112 -306 -342 -538 -623 -628 l-53 -17 73 -12 c186 -33
496 -164 713 -300 278 -176 528 -416 680 -655 58 -92 130 -242 169 -355 54
-156 77 -283 85 -466 l6 -160 42 64 c85 127 133 288 140 462 l5 127 -46 98
c-207 436 -718 915 -1281 1201 -82 41 -152 77 -154 79 -2 2 19 28 47 58 66 70
123 158 162 254 36 85 73 247 68 299 -3 30 -6 25 -33 -49z"/>
<path d="M4100 3625 c472 -130 890 -404 890 -582 0 -61 -51 -68 -132 -17 -24
15 -99 71 -168 124 -203 158 -387 270 -612 372 -105 47 -308 122 -314 115 -2
-2 34 -19 81 -39 356 -152 722 -480 933 -838 56 -95 151 -292 153 -320 1 -8 5
23 9 70 17 212 141 268 234 106 13 -22 52 -115 86 -205 33 -91 73 -187 87
-213 55 -100 120 -156 233 -199 l50 -19 -45 55 c-58 72 -91 138 -117 233 -18
68 -20 104 -19 298 1 237 -8 315 -51 434 -42 115 -123 216 -208 260 l-24 13
19 -29 c28 -43 55 -96 55 -111 0 -7 -11 -20 -25 -29 -23 -15 -27 -15 -57 3
-45 26 -90 102 -95 161 -6 62 20 97 83 113 25 7 42 15 37 20 -20 19 -137 70
-238 102 -272 87 -624 148 -842 146 l-88 0 85 -24z"/>
<path d="M1142 3536 c-63 -59 -79 -95 -61 -137 22 -54 96 -147 193 -242 77
-76 95 -99 101 -131 14 -84 86 -226 113 -226 4 0 7 37 7 83 0 65 5 90 22 122
61 113 201 178 390 178 91 1 91 1 77 22 -56 85 -242 97 -435 29 -112 -40 -171
-29 -224 43 -15 21 -56 66 -91 100 -70 68 -78 91 -49 160 8 20 13 38 11 41 -3
2 -27 -17 -54 -42z"/>
<path d="M2909 3463 c87 -52 201 -160 256 -243 54 -81 86 -157 126 -295 81
-284 227 -436 450 -471 l44 -7 -50 37 c-148 111 -255 306 -257 469 0 40 3 87
6 105 7 29 1 38 -116 158 l-123 127 85 -43 c299 -149 562 -425 485 -510 -23
-25 -36 -25 -84 -1 -36 19 -73 55 -114 111 l-18 25 6 -45 c13 -98 97 -226 275
-417 189 -204 241 -266 315 -378 149 -224 263 -494 312 -735 9 -44 9 -43 23
60 31 229 13 559 -40 761 -37 143 -125 317 -189 373 l-22 20 20 -45 c40 -88
20 -179 -39 -179 -61 0 -132 108 -214 323 -74 195 -146 307 -284 439 -173 165
-400 283 -681 352 -53 13 -114 27 -136 30 -22 4 -53 9 -70 12 -23 4 -16 -3 34
-33z"/>
<path d="M2878 3311 c63 -50 116 -114 144 -177 34 -73 32 -181 -5 -255 -38
-78 -115 -152 -204 -196 -63 -31 -87 -37 -159 -41 -96 -5 -141 8 -150 44 -3
12 -3 28 1 33 10 17 -8 13 -81 -14 -199 -75 -328 -219 -369 -411 -8 -38 -14
-94 -14 -124 l1 -55 13 60 c29 135 100 262 189 340 72 64 156 85 156 40 0 -9
-25 -43 -57 -76 -31 -32 -54 -59 -51 -59 3 0 30 11 59 24 103 45 189 58 404
61 110 1 234 8 275 15 104 17 225 56 256 84 l27 23 -34 21 c-48 29 -75 82 -93
182 -9 47 -21 110 -27 140 -27 138 -133 288 -247 348 -81 43 -94 40 -34 -7z"/>
<path d="M2067 2901 c-9 -16 -38 -40 -65 -53 -66 -32 -187 -31 -289 4 -40 13
-73 21 -73 16 0 -11 38 -86 60 -118 9 -14 23 -61 30 -105 26 -165 79 -310 157
-427 57 -87 69 -93 37 -21 -41 92 -74 253 -81 394 l-6 126 44 11 c87 22 179
103 203 180 10 30 4 28 -17 -7z"/>
<path d="M3195 2413 c-59 -5 -202 -32 -231 -44 l-26 -9 40 -40 c68 -65 77 -91
77 -210 0 -98 -3 -111 -39 -200 -65 -163 -88 -247 -93 -351 -5 -80 -2 -109 15
-165 41 -132 147 -229 303 -279 141 -44 272 -31 390 41 54 33 167 142 189 184
10 19 8 20 -52 20 -214 1 -367 108 -440 308 -17 48 -22 90 -27 262 -7 224 -10
238 -73 301 l-33 33 35 -20 c83 -48 130 -154 150 -336 25 -221 101 -347 254
-419 35 -17 117 -40 191 -55 149 -29 284 -72 366 -115 97 -52 169 -137 169
-201 0 -43 20 -3 36 73 31 145 -1 312 -81 421 l-34 47 -33 -17 c-44 -22 -147
-28 -217 -12 -84 18 -184 75 -239 134 -27 30 -87 125 -142 225 -54 98 -117
196 -145 229 l-50 56 43 -24 c56 -32 163 -142 252 -260 40 -52 86 -109 102
-127 59 -62 188 -113 285 -113 l35 0 -61 41 c-146 97 -246 268 -266 452 l-7
65 -57 26 c-140 62 -392 97 -586 79z"/>
<path d="M2393 2373 c-35 -7 -27 -20 16 -27 27 -4 47 -16 66 -38 24 -29 27
-38 22 -85 -3 -31 -29 -110 -62 -191 -93 -225 -116 -303 -116 -397 0 -95 22
-168 70 -238 46 -68 153 -160 234 -203 l72 -37 -61 65 c-102 109 -151 241
-141 375 4 59 16 95 58 190 58 131 99 246 99 277 0 17 2 18 10 6 20 -31 11
-160 -21 -288 -28 -112 -31 -139 -27 -229 4 -88 9 -110 36 -165 17 -35 47 -79
67 -98 l36 -35 -22 50 c-31 70 -37 201 -14 280 23 82 68 166 133 255 116 157
146 265 102 367 -12 28 -30 59 -41 69 -18 17 -19 16 -19 -23 0 -107 -112 -91
-205 29 -52 67 -119 98 -204 97 -37 -1 -76 -4 -88 -6z"/>
</g>
</svg>
