<?xml version="1.0" encoding="UTF-8"?>
<svg width="375pt" height="374.999991pt" viewBox="0 0 375 374.999991">
  <defs>
    <clipPath id="clip1">
      <path d="M 44.796875 37.5 L 323 37.5 L 323 307.476562 L 44.796875 307.476562 Z M 44.796875 37.5 " />
    </clipPath>
    <clipPath id="clip2">
      <path d="M 37.601562 43 L 337.417969 43 L 337.417969 307.476562 L 37.601562 307.476562 Z M 37.601562 43 " />
    </clipPath>
  </defs>
  <g id="surface1">
    <g class="cream" clip-path="url(#clip1)" clip-rule="nonzero">
      <path style=" stroke:none;fill-rule:nonzero;fill:rgb(86.669922%,85.879517%,79.60968%);fill-opacity:1;"
        d="M 88.488281 170.097656 L 60.621094 170.097656 C 59.507812 170.097656 58.609375 169.195312 58.609375 168.085938 L 58.609375 164.605469 C 58.609375 163.492188 59.507812 162.59375 60.621094 162.59375 L 88.488281 162.59375 C 89.597656 162.59375 90.5 163.492188 90.5 164.605469 L 90.5 168.085938 C 90.5 169.195312 89.597656 170.097656 88.488281 170.097656 Z M 44.988281 146.363281 L 44.988281 135.097656 L 51.097656 135.097656 L 51.097656 146.363281 C 51.097656 146.761719 50.773438 147.089844 50.371094 147.089844 L 45.714844 147.089844 C 45.316406 147.089844 44.988281 146.761719 44.988281 146.363281 Z M 95.574219 68.765625 L 95.535156 68.757812 L 95.535156 62.78125 C 95.535156 48.820312 84.214844 37.5 70.253906 37.5 C 56.289062 37.5 44.972656 48.820312 44.972656 62.78125 L 44.972656 74.46875 L 46.371094 74.46875 L 52.136719 94.949219 C 52.363281 95.753906 53.199219 96.21875 54 95.992188 L 57.558594 94.992188 C 58.363281 94.765625 58.828125 93.929688 58.605469 93.128906 L 51.566406 68.144531 C 51.339844 67.34375 50.507812 66.875 49.703125 67.101562 L 47.527344 67.714844 L 47.527344 63.878906 C 47.527344 51.21875 57.703125 43.128906 70.253906 43.128906 C 82.804688 43.128906 92.976562 51.21875 92.976562 63.878906 L 92.976562 68.035156 L 92.011719 67.761719 C 91.210938 67.539062 90.378906 68.003906 90.152344 68.808594 L 83.113281 93.792969 C 82.886719 94.59375 83.355469 95.425781 84.15625 95.652344 L 87.71875 96.65625 C 88.519531 96.882812 89.351562 96.414062 89.582031 95.613281 L 96.617188 70.628906 C 96.84375 69.828125 96.375 68.992188 95.574219 68.765625 Z M 162.769531 76.835938 L 163.671875 77.738281 L 170.640625 70.769531 L 169.738281 69.867188 Z M 170.570312 67.558594 L 169.667969 66.65625 L 162.699219 73.625 L 163.601562 74.523438 Z M 314.488281 307.476562 L 57.921875 307.476562 C 57.921875 307.476562 76.53125 265.964844 97.945312 243.007812 C 119.359375 220.050781 105.328125 205.484375 120.277344 171.078125 C 160.375 78.8125 223.191406 67.050781 274.128906 80.253906 C 360.480469 102.625 254.074219 163.265625 297.703125 174.800781 C 341.332031 186.335938 314.488281 307.476562 314.488281 307.476562 " />
    </g>
    <path class="crimson" style=" stroke:none;fill-rule:nonzero;fill:rgb(86.268616%,7.839966%,23.529053%);fill-opacity:1;"
      d="M 85.164062 249.800781 L 55.121094 249.800781 C 54.566406 249.800781 54.117188 250.25 54.117188 250.804688 L 54.117188 253.074219 L 56.34375 253.074219 L 58.359375 275.230469 L 81.929688 275.230469 L 83.945312 253.074219 L 86.167969 253.074219 L 86.167969 250.804688 C 86.167969 250.25 85.71875 249.800781 85.164062 249.800781 Z M 189.972656 242.375 C 189.972656 238.546875 186.3125 235.445312 181.796875 235.445312 C 177.28125 235.445312 173.621094 238.546875 173.621094 242.375 C 173.621094 246.199219 177.28125 249.300781 181.796875 249.300781 C 186.3125 249.300781 189.972656 246.199219 189.972656 242.375 Z M 238.898438 211.957031 L 242.546875 219.519531 L 242.546875 211.957031 Z M 254.695312 239.980469 L 254.492188 243.488281 L 225.535156 253.050781 L 224.628906 250.097656 L 222.972656 272.96875 L 218.207031 273.117188 L 218.570312 269.75 C 218.695312 269.1875 218.332031 268.644531 217.828125 268.644531 L 148.558594 268.644531 L 144.59375 237.542969 L 128.804688 254.972656 L 104.902344 241.152344 L 104.621094 236.496094 C 104.539062 235.113281 105.550781 233.914062 106.925781 233.761719 L 108.625 233.574219 L 138.996094 193.613281 L 184.414062 176.3125 L 228.886719 191.199219 L 238.179688 210.46875 L 242.597656 210.46875 C 242.976562 210.46875 243.304688 210.609375 243.582031 210.890625 C 243.859375 211.167969 244 211.5 244 211.886719 L 244 220.691406 C 244 221.074219 243.863281 221.410156 243.589844 221.683594 L 250.828125 236.695312 L 252.878906 237.34375 C 254.011719 237.699219 254.761719 238.789062 254.695312 239.980469 Z M 278.179688 97.082031 L 283.523438 97.082031 C 283.945312 97.082031 284.289062 96.742188 284.289062 96.316406 L 284.289062 95.378906 L 277.410156 95.378906 L 277.410156 96.316406 C 277.410156 96.742188 277.753906 97.082031 278.179688 97.082031 Z M 198.960938 78.183594 C 200.300781 78.183594 201.394531 77.09375 201.394531 75.75 C 201.394531 74.40625 200.300781 73.316406 198.960938 73.316406 C 197.621094 73.316406 196.527344 74.40625 196.527344 75.75 C 196.527344 77.09375 197.621094 78.183594 198.960938 78.183594 Z M 196.289062 58.007812 L 137.085938 58.007812 L 137.085938 93.492188 L 196.289062 93.492188 Z M 264.910156 216.835938 C 264.707031 216.835938 264.53125 216.910156 264.390625 217.054688 C 264.246094 217.199219 264.175781 217.371094 264.175781 217.570312 L 264.175781 220.636719 L 262.707031 220.636719 L 262.707031 210.488281 L 259.007812 210.488281 C 258.804688 210.488281 258.628906 210.558594 258.488281 210.699219 C 258.34375 210.84375 258.273438 211.019531 258.273438 211.222656 C 258.273438 211.425781 258.34375 211.597656 258.488281 211.742188 C 258.628906 211.886719 258.804688 211.957031 259.007812 211.957031 L 261.230469 211.957031 L 261.230469 220.636719 L 258.972656 220.636719 C 258.769531 220.636719 258.59375 220.707031 258.453125 220.847656 C 258.308594 220.988281 258.238281 221.15625 258.238281 221.355469 C 258.238281 221.558594 258.308594 221.734375 258.453125 221.882812 C 258.59375 222.03125 258.769531 222.105469 258.972656 222.105469 L 264.910156 222.105469 C 265.117188 222.105469 265.289062 222.035156 265.429688 221.890625 C 265.574219 221.75 265.648438 221.574219 265.648438 221.371094 L 265.648438 217.570312 C 265.648438 217.367188 265.574219 217.191406 265.429688 217.050781 C 265.289062 216.90625 265.117188 216.835938 264.910156 216.835938 Z M 253.378906 211.957031 L 248.894531 211.957031 L 248.894531 220.636719 L 253.378906 220.636719 Z M 254.417969 210.890625 C 254.691406 211.167969 254.832031 211.5 254.832031 211.886719 L 254.832031 220.691406 C 254.832031 221.082031 254.691406 221.414062 254.417969 221.691406 C 254.136719 221.96875 253.804688 222.105469 253.414062 222.105469 L 248.84375 222.105469 C 248.445312 222.105469 248.109375 221.96875 247.835938 221.691406 C 247.5625 221.414062 247.421875 221.082031 247.421875 220.691406 L 247.421875 211.886719 C 247.421875 211.5 247.5625 211.167969 247.84375 210.890625 C 248.121094 210.609375 248.457031 210.46875 248.84375 210.46875 L 253.429688 210.46875 C 253.808594 210.46875 254.136719 210.609375 254.417969 210.890625 Z M 309.535156 182.128906 L 309.535156 184.808594 L 308.0625 184.808594 L 308.0625 180.625 C 307.589844 180.171875 307.097656 179.742188 306.59375 179.328125 L 306.59375 184.808594 L 304.332031 184.808594 C 304.128906 184.808594 303.957031 184.878906 303.8125 185.019531 C 303.671875 185.160156 303.601562 185.328125 303.601562 185.527344 C 303.601562 185.730469 303.671875 185.90625 303.8125 186.058594 C 303.957031 186.207031 304.128906 186.28125 304.332031 186.28125 L 310.269531 186.28125 C 310.472656 186.28125 310.648438 186.210938 310.792969 186.066406 C 310.9375 185.921875 311.007812 185.75 311.007812 185.546875 L 311.007812 183.890625 C 310.53125 183.28125 310.042969 182.691406 309.535156 182.128906 Z M 298.738281 176.132812 L 294.253906 176.132812 L 294.253906 184.808594 L 298.738281 184.808594 Z M 300.105469 175.578125 C 300.160156 175.730469 300.191406 175.886719 300.191406 176.0625 L 300.191406 184.863281 C 300.191406 185.253906 300.054688 185.585938 299.777344 185.863281 C 299.5 186.140625 299.164062 186.28125 298.773438 186.28125 L 294.199219 186.28125 C 293.804688 186.28125 293.46875 186.140625 293.195312 185.863281 C 292.917969 185.585938 292.785156 185.253906 292.785156 184.863281 L 292.785156 176.0625 C 292.785156 175.675781 292.925781 175.34375 293.203125 175.0625 C 293.484375 174.78125 293.816406 174.640625 294.199219 174.640625 L 297.140625 174.640625 C 297.324219 174.695312 297.511719 174.75 297.703125 174.800781 C 298.527344 175.019531 299.328125 175.28125 300.105469 175.578125 Z M 287.90625 176.132812 L 283.421875 176.132812 L 283.421875 184.808594 L 287.90625 184.808594 Z M 288.941406 175.0625 C 289.222656 175.34375 289.359375 175.675781 289.359375 176.0625 L 289.359375 184.863281 C 289.359375 185.253906 289.222656 185.585938 288.941406 185.863281 C 288.667969 186.140625 288.332031 186.28125 287.941406 186.28125 L 283.371094 186.28125 C 282.972656 186.28125 282.636719 186.140625 282.363281 185.863281 C 282.089844 185.585938 281.949219 185.253906 281.949219 184.863281 L 281.949219 176.0625 C 281.949219 175.675781 282.089844 175.34375 282.371094 175.0625 C 282.652344 174.78125 282.984375 174.640625 283.371094 174.640625 L 287.957031 174.640625 C 288.339844 174.640625 288.667969 174.78125 288.941406 175.0625 Z M 277.773438 181.011719 C 277.570312 181.011719 277.394531 181.082031 277.253906 181.226562 C 277.109375 181.375 277.039062 181.546875 277.039062 181.742188 L 277.039062 184.808594 L 275.570312 184.808594 L 275.570312 174.660156 L 271.871094 174.660156 C 271.667969 174.660156 271.496094 174.730469 271.351562 174.875 C 271.207031 175.019531 271.136719 175.191406 271.136719 175.394531 C 271.136719 175.601562 271.207031 175.773438 271.351562 175.917969 C 271.496094 176.058594 271.667969 176.132812 271.871094 176.132812 L 274.097656 176.132812 L 274.097656 184.808594 L 271.835938 184.808594 C 271.632812 184.808594 271.457031 184.878906 271.316406 185.019531 C 271.175781 185.160156 271.101562 185.328125 271.101562 185.527344 C 271.101562 185.730469 271.175781 185.90625 271.316406 186.058594 C 271.457031 186.207031 271.632812 186.28125 271.835938 186.28125 L 277.773438 186.28125 C 277.980469 186.28125 278.152344 186.210938 278.292969 186.066406 C 278.4375 185.921875 278.511719 185.75 278.511719 185.546875 L 278.511719 181.742188 C 278.511719 181.539062 278.4375 181.367188 278.292969 181.222656 C 278.152344 181.082031 277.980469 181.011719 277.773438 181.011719 Z M 266.242188 176.132812 L 261.757812 176.132812 L 261.757812 184.808594 L 266.242188 184.808594 Z M 267.28125 175.0625 C 267.554688 175.34375 267.695312 175.675781 267.695312 176.0625 L 267.695312 184.863281 C 267.695312 185.253906 267.554688 185.585938 267.28125 185.863281 C 267 186.140625 266.667969 186.28125 266.277344 186.28125 L 261.707031 186.28125 C 261.308594 186.28125 260.972656 186.140625 260.699219 185.863281 C 260.425781 185.585938 260.285156 185.253906 260.285156 184.863281 L 260.285156 176.0625 C 260.285156 175.675781 260.425781 175.34375 260.707031 175.0625 C 260.984375 174.78125 261.320312 174.640625 261.707031 174.640625 L 266.292969 174.640625 C 266.671875 174.640625 267 174.78125 267.28125 175.0625 Z M 248.789062 142.546875 L 253.269531 142.546875 L 253.269531 133.871094 L 248.789062 133.871094 Z M 248.738281 132.378906 L 253.324219 132.378906 C 253.703125 132.378906 254.03125 132.519531 254.3125 132.800781 C 254.585938 133.078125 254.726562 133.414062 254.726562 133.800781 L 254.726562 142.601562 C 254.726562 142.992188 254.585938 143.324219 254.3125 143.601562 C 254.03125 143.878906 253.699219 144.019531 253.308594 144.019531 L 248.738281 144.019531 C 248.339844 144.019531 248.003906 143.878906 247.730469 143.601562 C 247.457031 143.324219 247.316406 142.992188 247.316406 142.601562 L 247.316406 133.800781 C 247.316406 133.414062 247.457031 133.078125 247.738281 132.800781 C 248.015625 132.519531 248.351562 132.378906 248.738281 132.378906 Z M 237.203125 142.546875 C 237 142.546875 236.824219 142.617188 236.679688 142.757812 C 236.539062 142.898438 236.46875 143.066406 236.46875 143.265625 C 236.46875 143.46875 236.539062 143.644531 236.679688 143.796875 C 236.824219 143.941406 237 144.019531 237.203125 144.019531 L 243.140625 144.019531 C 243.34375 144.019531 243.519531 143.949219 243.660156 143.804688 C 243.804688 143.660156 243.875 143.488281 243.875 143.285156 L 243.875 139.484375 C 243.875 139.277344 243.804688 139.105469 243.660156 138.960938 C 243.519531 138.820312 243.34375 138.75 243.140625 138.75 C 242.933594 138.75 242.761719 138.820312 242.617188 138.964844 C 242.476562 139.113281 242.40625 139.285156 242.40625 139.484375 L 242.40625 142.546875 L 240.933594 142.546875 L 240.933594 132.398438 L 237.238281 132.398438 C 237.035156 132.398438 236.859375 132.472656 236.71875 132.613281 C 236.574219 132.757812 236.503906 132.929688 236.503906 133.132812 C 236.503906 133.339844 236.574219 133.511719 236.71875 133.652344 C 236.859375 133.800781 237.035156 133.871094 237.238281 133.871094 L 239.464844 133.871094 L 239.464844 142.546875 Z M 227.125 142.546875 L 231.609375 142.546875 L 231.609375 133.871094 L 227.125 133.871094 Z M 227.070312 132.378906 L 231.660156 132.378906 C 232.039062 132.378906 232.367188 132.519531 232.644531 132.800781 C 232.921875 133.078125 233.058594 133.414062 233.058594 133.800781 L 233.058594 142.601562 C 233.058594 142.992188 232.921875 143.324219 232.644531 143.601562 C 232.367188 143.878906 232.035156 144.019531 231.644531 144.019531 L 227.070312 144.019531 C 226.675781 144.019531 226.339844 143.878906 226.0625 143.601562 C 225.789062 143.324219 225.652344 142.992188 225.652344 142.601562 L 225.652344 133.800781 C 225.652344 133.414062 225.792969 133.078125 226.074219 132.800781 C 226.355469 132.519531 226.6875 132.378906 227.070312 132.378906 Z M 219.269531 132.398438 L 215.574219 132.398438 C 215.371094 132.398438 215.195312 132.472656 215.054688 132.613281 C 214.910156 132.757812 214.839844 132.929688 214.839844 133.132812 C 214.839844 133.339844 214.910156 133.511719 215.054688 133.652344 C 215.195312 133.800781 215.371094 133.871094 215.574219 133.871094 L 217.796875 133.871094 L 217.796875 142.546875 L 215.539062 142.546875 C 215.335938 142.546875 215.160156 142.617188 215.019531 142.757812 C 214.875 142.898438 214.804688 143.066406 214.804688 143.265625 C 214.804688 143.46875 214.875 143.644531 215.019531 143.796875 C 215.160156 143.941406 215.335938 144.019531 215.539062 144.019531 L 221.476562 144.019531 C 221.679688 144.019531 221.855469 143.949219 221.996094 143.804688 C 222.140625 143.660156 222.210938 143.488281 222.210938 143.285156 L 222.210938 139.484375 C 222.210938 139.277344 222.140625 139.105469 221.996094 138.960938 C 221.855469 138.820312 221.679688 138.75 221.476562 138.75 C 221.273438 138.75 221.097656 138.820312 220.957031 138.964844 C 220.8125 139.113281 220.742188 139.285156 220.742188 139.484375 L 220.742188 142.546875 L 219.269531 142.546875 Z M 205.460938 142.546875 L 209.941406 142.546875 L 209.941406 133.871094 L 205.460938 133.871094 Z M 205.40625 132.378906 L 209.996094 132.378906 C 210.375 132.378906 210.703125 132.519531 210.980469 132.800781 C 211.257812 133.078125 211.398438 133.414062 211.398438 133.800781 L 211.398438 142.601562 C 211.398438 142.992188 211.257812 143.324219 210.980469 143.601562 C 210.703125 143.878906 210.367188 144.019531 209.976562 144.019531 L 205.40625 144.019531 C 205.011719 144.019531 204.675781 143.878906 204.402344 143.601562 C 204.125 143.324219 203.988281 142.992188 203.988281 142.601562 L 203.988281 133.800781 C 203.988281 133.414062 204.128906 133.078125 204.410156 132.800781 C 204.6875 132.519531 205.023438 132.378906 205.40625 132.378906 Z M 193.875 142.546875 C 193.667969 142.546875 193.496094 142.617188 193.351562 142.757812 C 193.210938 142.898438 193.140625 143.066406 193.140625 143.265625 C 193.140625 143.46875 193.210938 143.644531 193.351562 143.796875 C 193.496094 143.941406 193.667969 144.019531 193.875 144.019531 L 199.808594 144.019531 C 200.015625 144.019531 200.191406 143.949219 200.332031 143.804688 C 200.476562 143.660156 200.546875 143.488281 200.546875 143.285156 L 200.546875 139.484375 C 200.546875 139.277344 200.476562 139.105469 200.332031 138.960938 C 200.191406 138.820312 200.015625 138.75 199.808594 138.75 C 199.605469 138.75 199.433594 138.820312 199.289062 138.964844 C 199.148438 139.113281 199.074219 139.285156 199.074219 139.484375 L 199.074219 142.546875 L 197.605469 142.546875 L 197.605469 132.398438 L 193.910156 132.398438 C 193.703125 132.398438 193.53125 132.472656 193.386719 132.613281 C 193.246094 132.757812 193.175781 132.929688 193.175781 133.132812 C 193.175781 133.339844 193.246094 133.511719 193.386719 133.652344 C 193.53125 133.800781 193.703125 133.871094 193.910156 133.871094 L 196.132812 133.871094 L 196.132812 142.546875 Z M 183.042969 142.546875 C 182.835938 142.546875 182.664062 142.617188 182.519531 142.757812 C 182.378906 142.898438 182.308594 143.066406 182.308594 143.265625 C 182.308594 143.46875 182.378906 143.644531 182.519531 143.796875 C 182.664062 143.941406 182.835938 144.019531 183.042969 144.019531 L 188.980469 144.019531 C 189.183594 144.019531 189.355469 143.949219 189.5 143.804688 C 189.644531 143.660156 189.714844 143.488281 189.714844 143.285156 L 189.714844 139.484375 C 189.714844 139.277344 189.644531 139.105469 189.5 138.960938 C 189.355469 138.820312 189.183594 138.75 188.980469 138.75 C 188.773438 138.75 188.601562 138.820312 188.457031 138.964844 C 188.316406 139.113281 188.242188 139.285156 188.242188 139.484375 L 188.242188 142.546875 L 186.773438 142.546875 L 186.773438 132.398438 L 183.078125 132.398438 C 182.871094 132.398438 182.699219 132.472656 182.558594 132.613281 C 182.414062 132.757812 182.34375 132.929688 182.34375 133.132812 C 182.34375 133.339844 182.414062 133.511719 182.558594 133.652344 C 182.699219 133.800781 182.871094 133.871094 183.078125 133.871094 L 185.304688 133.871094 L 185.304688 142.546875 Z M 172.964844 142.546875 L 177.449219 142.546875 L 177.449219 133.871094 L 172.964844 133.871094 Z M 171.902344 143.601562 C 171.628906 143.324219 171.492188 142.992188 171.492188 142.601562 L 171.492188 133.800781 C 171.492188 133.414062 171.632812 133.078125 171.914062 132.800781 C 172.195312 132.519531 172.523438 132.378906 172.910156 132.378906 L 177.5 132.378906 C 177.878906 132.378906 178.207031 132.519531 178.484375 132.800781 C 178.761719 133.078125 178.898438 133.414062 178.898438 133.800781 L 178.898438 142.601562 C 178.898438 142.992188 178.761719 143.324219 178.484375 143.601562 C 178.207031 143.878906 177.875 144.019531 177.484375 144.019531 L 172.910156 144.019531 C 172.515625 144.019531 172.175781 143.878906 171.902344 143.601562 Z M 294.273438 113.214844 L 289.789062 113.214844 L 289.789062 121.890625 L 294.273438 121.890625 Z M 294.308594 123.363281 L 289.738281 123.363281 C 289.339844 123.363281 289.003906 123.222656 288.730469 122.945312 C 288.457031 122.667969 288.316406 122.335938 288.316406 121.941406 L 288.316406 113.140625 C 288.316406 112.757812 288.457031 112.425781 288.738281 112.144531 C 289.015625 111.863281 289.351562 111.722656 289.738281 111.722656 L 294.324219 111.722656 C 294.703125 111.722656 295.03125 111.863281 295.3125 112.144531 C 295.585938 112.425781 295.726562 112.757812 295.726562 113.140625 L 295.726562 121.941406 C 295.726562 122.335938 295.585938 122.667969 295.3125 122.945312 C 295.03125 123.222656 294.699219 123.363281 294.308594 123.363281 Z M 283.621094 118.308594 C 283.476562 118.457031 283.40625 118.628906 283.40625 118.824219 L 283.40625 121.890625 L 281.933594 121.890625 L 281.933594 111.742188 L 278.238281 111.742188 C 278.035156 111.742188 277.859375 111.8125 277.71875 111.957031 C 277.574219 112.097656 277.503906 112.273438 277.503906 112.476562 C 277.503906 112.683594 277.574219 112.855469 277.71875 113 C 277.859375 113.140625 278.035156 113.214844 278.238281 113.214844 L 280.464844 113.214844 L 280.464844 121.890625 L 278.203125 121.890625 C 278 121.890625 277.828125 121.960938 277.679688 122.101562 C 277.539062 122.242188 277.46875 122.410156 277.46875 122.609375 C 277.46875 122.8125 277.539062 122.988281 277.679688 123.136719 C 277.828125 123.289062 278 123.363281 278.203125 123.363281 L 284.140625 123.363281 C 284.34375 123.363281 284.519531 123.289062 284.664062 123.148438 C 284.804688 123.003906 284.875 122.832031 284.875 122.625 L 284.875 118.824219 C 284.875 118.621094 284.804688 118.449219 284.664062 118.304688 C 284.519531 118.160156 284.34375 118.089844 284.140625 118.089844 C 283.9375 118.089844 283.765625 118.164062 283.621094 118.308594 Z M 272.609375 113.214844 L 268.125 113.214844 L 268.125 121.890625 L 272.609375 121.890625 Z M 272.644531 123.363281 L 268.070312 123.363281 C 267.675781 123.363281 267.339844 123.222656 267.0625 122.945312 C 266.789062 122.667969 266.652344 122.335938 266.652344 121.941406 L 266.652344 113.140625 C 266.652344 112.757812 266.792969 112.425781 267.074219 112.144531 C 267.355469 111.863281 267.6875 111.722656 268.070312 111.722656 L 272.660156 111.722656 C 273.039062 111.722656 273.371094 111.863281 273.644531 112.144531 C 273.925781 112.425781 274.0625 112.757812 274.0625 113.140625 L 274.0625 121.941406 C 274.0625 122.335938 273.925781 122.667969 273.644531 122.945312 C 273.371094 123.222656 273.035156 123.363281 272.644531 123.363281 Z M 263 123.148438 C 263.140625 123.003906 263.210938 122.832031 263.210938 122.625 L 263.210938 118.824219 C 263.210938 118.621094 263.140625 118.449219 263 118.304688 C 262.855469 118.160156 262.683594 118.089844 262.476562 118.089844 C 262.273438 118.089844 262.097656 118.164062 261.957031 118.308594 C 261.8125 118.457031 261.742188 118.628906 261.742188 118.824219 L 261.742188 121.890625 L 260.269531 121.890625 L 260.269531 111.742188 L 256.574219 111.742188 C 256.371094 111.742188 256.195312 111.8125 256.054688 111.957031 C 255.910156 112.097656 255.839844 112.273438 255.839844 112.476562 C 255.839844 112.683594 255.910156 112.855469 256.054688 113 C 256.195312 113.140625 256.371094 113.214844 256.574219 113.214844 L 258.796875 113.214844 L 258.796875 121.890625 L 256.539062 121.890625 C 256.335938 121.890625 256.160156 121.960938 256.019531 122.101562 C 255.875 122.242188 255.804688 122.410156 255.804688 122.609375 C 255.804688 122.8125 255.875 122.988281 256.019531 123.136719 C 256.160156 123.289062 256.335938 123.363281 256.539062 123.363281 L 262.476562 123.363281 C 262.683594 123.363281 262.855469 123.289062 263 123.148438 Z M 250.941406 113.214844 L 246.460938 113.214844 L 246.460938 121.890625 L 250.941406 121.890625 Z M 250.996094 111.722656 C 251.375 111.722656 251.703125 111.863281 251.980469 112.144531 C 252.257812 112.425781 252.398438 112.757812 252.398438 113.140625 L 252.398438 121.941406 C 252.398438 122.335938 252.257812 122.667969 251.980469 122.945312 C 251.703125 123.222656 251.367188 123.363281 250.976562 123.363281 L 246.410156 123.363281 C 246.011719 123.363281 245.675781 123.222656 245.402344 122.945312 C 245.125 122.667969 244.988281 122.335938 244.988281 121.941406 L 244.988281 113.140625 C 244.988281 112.757812 245.128906 112.425781 245.410156 112.144531 C 245.6875 111.863281 246.023438 111.722656 246.410156 111.722656 Z M 234.875 121.890625 C 234.671875 121.890625 234.496094 121.960938 234.351562 122.101562 C 234.210938 122.242188 234.140625 122.410156 234.140625 122.609375 C 234.140625 122.8125 234.210938 122.988281 234.351562 123.136719 C 234.496094 123.289062 234.671875 123.363281 234.875 123.363281 L 240.808594 123.363281 C 241.015625 123.363281 241.191406 123.289062 241.332031 123.148438 C 241.476562 123.003906 241.546875 122.832031 241.546875 122.625 L 241.546875 118.824219 C 241.546875 118.621094 241.476562 118.449219 241.332031 118.304688 C 241.191406 118.160156 241.015625 118.089844 240.808594 118.089844 C 240.605469 118.089844 240.433594 118.164062 240.289062 118.308594 C 240.148438 118.457031 240.074219 118.628906 240.074219 118.824219 L 240.074219 121.890625 L 238.605469 121.890625 L 238.605469 111.742188 L 234.910156 111.742188 C 234.703125 111.742188 234.53125 111.8125 234.386719 111.957031 C 234.246094 112.097656 234.175781 112.273438 234.175781 112.476562 C 234.175781 112.683594 234.246094 112.855469 234.386719 113 C 234.53125 113.140625 234.703125 113.214844 234.910156 113.214844 L 237.132812 113.214844 L 237.132812 121.890625 Z M 229.457031 118.308594 C 229.316406 118.457031 229.246094 118.628906 229.246094 118.824219 L 229.246094 121.890625 L 227.773438 121.890625 L 227.773438 111.742188 L 224.078125 111.742188 C 223.871094 111.742188 223.699219 111.8125 223.558594 111.957031 C 223.414062 112.097656 223.34375 112.273438 223.34375 112.476562 C 223.34375 112.683594 223.414062 112.855469 223.558594 113 C 223.699219 113.140625 223.871094 113.214844 224.078125 113.214844 L 226.304688 113.214844 L 226.304688 121.890625 L 224.042969 121.890625 C 223.839844 121.890625 223.664062 121.960938 223.519531 122.101562 C 223.378906 122.242188 223.308594 122.410156 223.308594 122.609375 C 223.308594 122.8125 223.378906 122.988281 223.519531 123.136719 C 223.664062 123.289062 223.839844 123.363281 224.042969 123.363281 L 229.980469 123.363281 C 230.183594 123.363281 230.355469 123.289062 230.5 123.148438 C 230.644531 123.003906 230.714844 122.832031 230.714844 122.625 L 230.714844 118.824219 C 230.714844 118.621094 230.644531 118.449219 230.5 118.304688 C 230.355469 118.160156 230.183594 118.089844 229.980469 118.089844 C 229.777344 118.089844 229.601562 118.164062 229.457031 118.308594 Z M 218.449219 113.214844 L 213.964844 113.214844 L 213.964844 121.890625 L 218.449219 121.890625 Z M 218.5 111.722656 C 218.878906 111.722656 219.207031 111.863281 219.484375 112.144531 C 219.761719 112.425781 219.898438 112.757812 219.898438 113.140625 L 219.898438 121.941406 C 219.898438 122.335938 219.761719 122.667969 219.484375 122.945312 C 219.207031 123.222656 218.875 123.363281 218.484375 123.363281 L 213.910156 123.363281 C 213.515625 123.363281 213.175781 123.222656 212.902344 122.945312 C 212.628906 122.667969 212.492188 122.335938 212.492188 121.941406 L 212.492188 113.140625 C 212.492188 112.757812 212.632812 112.425781 212.914062 112.144531 C 213.191406 111.863281 213.523438 111.722656 213.910156 111.722656 Z M 245.980469 106.628906 L 250.464844 106.628906 L 250.464844 97.949219 L 245.980469 97.949219 Z M 244.921875 107.683594 C 244.648438 107.40625 244.511719 107.074219 244.511719 106.679688 L 244.511719 97.878906 C 244.511719 97.496094 244.652344 97.164062 244.929688 96.882812 C 245.210938 96.601562 245.542969 96.460938 245.929688 96.460938 L 250.519531 96.460938 C 250.894531 96.460938 251.226562 96.601562 251.503906 96.882812 C 251.777344 97.164062 251.917969 97.496094 251.917969 97.878906 L 251.917969 106.679688 C 251.917969 107.074219 251.777344 107.40625 251.503906 107.683594 C 251.226562 107.960938 250.890625 108.101562 250.5 108.101562 L 245.929688 108.101562 C 245.53125 108.101562 245.199219 107.960938 244.921875 107.683594 Z M 234.398438 106.628906 C 234.191406 106.628906 234.019531 106.699219 233.875 106.839844 C 233.734375 106.980469 233.660156 107.148438 233.660156 107.347656 C 233.660156 107.550781 233.734375 107.726562 233.875 107.875 C 234.019531 108.027344 234.191406 108.101562 234.398438 108.101562 L 240.332031 108.101562 C 240.535156 108.101562 240.710938 108.027344 240.855469 107.886719 C 240.996094 107.742188 241.070312 107.570312 241.070312 107.363281 L 241.070312 103.5625 C 241.070312 103.359375 240.996094 103.1875 240.855469 103.042969 C 240.710938 102.898438 240.535156 102.828125 240.332031 102.828125 C 240.128906 102.828125 239.957031 102.902344 239.8125 103.046875 C 239.667969 103.195312 239.597656 103.363281 239.597656 103.5625 L 239.597656 106.628906 L 238.125 106.628906 L 238.125 97.082031 L 242.988281 97.082031 C 243.40625 97.082031 243.753906 96.742188 243.753906 96.316406 L 243.753906 95.378906 L 236.875 95.378906 L 236.875 96.316406 C 236.875 96.375 236.898438 96.425781 236.910156 96.480469 L 234.429688 96.480469 C 234.226562 96.480469 234.054688 96.550781 233.910156 96.695312 C 233.765625 96.835938 233.699219 97.011719 233.699219 97.214844 C 233.699219 97.421875 233.765625 97.59375 233.910156 97.738281 C 234.054688 97.878906 234.226562 97.949219 234.429688 97.949219 L 236.65625 97.949219 L 236.65625 106.628906 Z M 224.316406 106.628906 L 228.800781 106.628906 L 228.800781 97.949219 L 224.316406 97.949219 Z M 223.257812 107.683594 C 222.984375 107.40625 222.847656 107.074219 222.847656 106.679688 L 222.847656 97.878906 C 222.847656 97.496094 222.988281 97.164062 223.265625 96.882812 C 223.546875 96.601562 223.878906 96.460938 224.265625 96.460938 L 228.855469 96.460938 C 229.234375 96.460938 229.5625 96.601562 229.835938 96.882812 C 230.117188 97.164062 230.253906 97.496094 230.253906 97.878906 L 230.253906 106.679688 C 230.253906 107.074219 230.117188 107.40625 229.835938 107.683594 C 229.5625 107.960938 229.226562 108.101562 228.835938 108.101562 L 224.265625 108.101562 C 223.867188 108.101562 223.53125 107.960938 223.257812 107.683594 Z M 213.488281 106.628906 L 217.96875 106.628906 L 217.96875 97.949219 L 213.488281 97.949219 Z M 212.425781 107.683594 C 212.152344 107.40625 212.011719 107.074219 212.011719 106.679688 L 212.011719 97.878906 C 212.011719 97.496094 212.152344 97.164062 212.433594 96.882812 C 212.714844 96.601562 213.046875 96.460938 213.433594 96.460938 L 218.019531 96.460938 C 218.402344 96.460938 218.726562 96.601562 219.007812 96.882812 C 219.285156 97.164062 219.421875 97.496094 219.421875 97.878906 L 219.421875 106.679688 C 219.421875 107.074219 219.285156 107.40625 219.007812 107.683594 C 218.726562 107.960938 218.394531 108.101562 218.003906 108.101562 L 213.433594 108.101562 C 213.035156 108.101562 212.699219 107.960938 212.425781 107.683594 Z M 202.652344 106.628906 L 207.136719 106.628906 L 207.136719 97.949219 L 202.652344 97.949219 Z M 201.179688 97.878906 C 201.179688 97.496094 201.320312 97.164062 201.601562 96.882812 C 201.882812 96.601562 202.214844 96.460938 202.601562 96.460938 L 207.1875 96.460938 C 207.566406 96.460938 207.894531 96.601562 208.175781 96.882812 C 208.449219 97.164062 208.589844 97.496094 208.589844 97.878906 L 208.589844 106.679688 C 208.589844 107.074219 208.449219 107.40625 208.175781 107.683594 C 207.894531 107.960938 207.5625 108.101562 207.171875 108.101562 L 202.601562 108.101562 C 202.203125 108.101562 201.871094 107.960938 201.59375 107.683594 C 201.320312 107.40625 201.179688 107.074219 201.179688 106.679688 Z M 196.269531 106.628906 L 194.796875 106.628906 L 194.796875 96.480469 L 191.101562 96.480469 C 190.898438 96.480469 190.726562 96.550781 190.582031 96.695312 C 190.4375 96.835938 190.367188 97.011719 190.367188 97.214844 C 190.367188 97.421875 190.4375 97.59375 190.582031 97.738281 C 190.726562 97.878906 190.898438 97.949219 191.101562 97.949219 L 193.328125 97.949219 L 193.328125 106.628906 L 191.066406 106.628906 C 190.863281 106.628906 190.691406 106.699219 190.546875 106.839844 C 190.40625 106.980469 190.332031 107.148438 190.332031 107.347656 C 190.332031 107.550781 190.40625 107.726562 190.546875 107.875 C 190.691406 108.027344 190.863281 108.101562 191.066406 108.101562 L 197.003906 108.101562 C 197.207031 108.101562 197.382812 108.027344 197.523438 107.886719 C 197.667969 107.742188 197.738281 107.570312 197.738281 107.363281 L 197.738281 103.5625 C 197.738281 103.359375 197.667969 103.1875 197.523438 103.042969 C 197.382812 102.898438 197.207031 102.828125 197.003906 102.828125 C 196.800781 102.828125 196.628906 102.902344 196.484375 103.046875 C 196.339844 103.195312 196.269531 103.363281 196.269531 103.5625 Z M 180.234375 106.628906 C 180.03125 106.628906 179.859375 106.699219 179.714844 106.839844 C 179.570312 106.980469 179.5 107.148438 179.5 107.347656 C 179.5 107.550781 179.570312 107.726562 179.714844 107.875 C 179.859375 108.027344 180.03125 108.101562 180.234375 108.101562 L 186.171875 108.101562 C 186.375 108.101562 186.550781 108.027344 186.695312 107.886719 C 186.835938 107.742188 186.90625 107.570312 186.90625 107.363281 L 186.90625 103.5625 C 186.90625 103.359375 186.835938 103.1875 186.695312 103.042969 C 186.550781 102.898438 186.375 102.828125 186.171875 102.828125 C 185.96875 102.828125 185.792969 102.902344 185.652344 103.046875 C 185.507812 103.195312 185.4375 103.363281 185.4375 103.5625 L 185.4375 106.628906 L 183.964844 106.628906 L 183.964844 96.480469 L 180.269531 96.480469 C 180.066406 96.480469 179.890625 96.550781 179.75 96.695312 C 179.605469 96.835938 179.535156 97.011719 179.535156 97.214844 C 179.535156 97.421875 179.605469 97.59375 179.75 97.738281 C 179.890625 97.878906 180.066406 97.949219 180.269531 97.949219 L 182.496094 97.949219 L 182.496094 106.628906 Z M 168.683594 101.875 L 168.683594 106.679688 C 168.683594 107.074219 168.820312 107.40625 169.097656 107.683594 C 169.371094 107.960938 169.707031 108.101562 170.101562 108.101562 L 174.675781 108.101562 C 175.066406 108.101562 175.398438 107.960938 175.675781 107.683594 C 175.957031 107.40625 176.09375 107.074219 176.09375 106.679688 L 176.09375 97.878906 C 176.09375 97.496094 175.957031 97.164062 175.675781 96.882812 C 175.585938 96.789062 175.488281 96.71875 175.386719 96.65625 C 174.800781 97.082031 174.21875 97.515625 173.636719 97.949219 L 174.640625 97.949219 L 174.640625 106.628906 L 170.15625 106.628906 L 170.15625 100.667969 C 169.667969 101.066406 169.175781 101.46875 168.683594 101.875 Z M 65.59375 132.597656 L 68.167969 132.597656 L 68.167969 128.242188 L 68.570312 128.242188 L 68.570312 132.597656 L 70.882812 132.597656 C 71.597656 132.597656 72.191406 132.394531 72.652344 131.992188 C 73.128906 131.574219 73.378906 131 73.378906 130.332031 C 73.378906 129.808594 73.222656 129.367188 72.925781 129.027344 C 73.207031 128.632812 73.28125 128.222656 73.28125 127.898438 C 73.28125 127.257812 73.039062 126.703125 72.574219 126.289062 C 72.113281 125.878906 71.441406 125.679688 70.511719 125.679688 L 64.71875 125.679688 L 64.71875 128.242188 L 65.59375 128.242188 Z M 61.921875 128.136719 L 61.203125 128.136719 L 61.203125 125.679688 L 64.417969 125.679688 L 64.417969 132.597656 L 61.921875 132.597656 L 61.921875 128.136719 " />
    <path class="skin" style="stroke:none;fill-rule:nonzero;fill:rgb(63.139343%,39.99939%,36.859131%);fill-opacity:1;"
      d="M 195.925781 173.425781 L 195.925781 180.789062 L 199.488281 183.558594 C 199.488281 183.558594 187.300781 196.972656 182.894531 196.972656 C 178.519531 196.972656 166.535156 184.621094 166.535156 184.621094 L 170.589844 181.691406 L 170.589844 174.253906 C 168.84375 172.449219 167.738281 170.046875 167.609375 167.042969 L 167.285156 159.144531 C 164.921875 159.363281 161.125 152.578125 163.160156 149.378906 C 164.3125 147.566406 165.785156 148.785156 166.925781 150.355469 L 166.515625 140.296875 C 166.355469 136.785156 169.164062 133.855469 172.675781 133.855469 L 193.117188 133.855469 C 196.632812 133.855469 199.4375 136.785156 199.28125 140.296875 L 198.761719 153.003906 C 199.535156 150.871094 201.351562 146.75 203.023438 149.378906 C 205.175781 152.757812 200.8125 160.144531 198.515625 159.039062 L 198.1875 167.042969 C 198.074219 169.605469 197.25 171.730469 195.925781 173.425781 Z M 127.105469 253.992188 L 106.894531 242.304688 L 98.132812 254.976562 L 98.113281 254.972656 L 94.667969 260.070312 C 91.320312 265.03125 96.5 276.128906 102.457031 276.746094 L 155.796875 278.105469 L 156.082031 275.351562 L 140.605469 275.351562 L 140.113281 270.230469 C 139.933594 269.425781 140.460938 268.644531 141.179688 268.644531 L 156.773438 268.644531 L 157.554688 261.109375 L 124.378906 257.6875 Z M 249.035156 277.226562 L 218.171875 273.453125 L 218.570312 269.75 C 218.695312 269.1875 218.332031 268.644531 217.828125 268.644531 L 196.164062 268.644531 L 196.828125 253.679688 L 229.328125 255.121094 L 227.800781 252.300781 L 251.253906 244.558594 L 258.605469 260.679688 L 259.179688 261.875 C 261.769531 267.273438 255.011719 277.488281 249.035156 277.226562 " />
    <g class="black" clip-path="url(#clip2)" clip-rule="nonzero">
      <path style=" stroke:none;fill-rule:nonzero;fill:rgb(1.959229%,1.959229%,1.959229%);fill-opacity:1;"
        d="M 79.925781 256.933594 L 79.925781 258.886719 C 79.925781 259.238281 80.210938 259.527344 80.5625 259.527344 C 80.914062 259.527344 81.199219 259.238281 81.199219 258.886719 L 81.199219 256.933594 C 81.199219 256.582031 80.914062 256.296875 80.5625 256.296875 C 80.210938 256.296875 79.925781 256.582031 79.925781 256.933594 Z M 78.136719 258.886719 L 78.136719 256.933594 C 78.136719 256.582031 77.851562 256.296875 77.5 256.296875 C 77.148438 256.296875 76.863281 256.582031 76.863281 256.933594 L 76.863281 258.886719 C 76.863281 259.238281 77.148438 259.527344 77.5 259.527344 C 77.851562 259.527344 78.136719 259.238281 78.136719 258.886719 Z M 75.078125 258.886719 L 75.078125 256.933594 C 75.078125 256.582031 74.792969 256.296875 74.441406 256.296875 C 74.085938 256.296875 73.800781 256.582031 73.800781 256.933594 L 73.800781 258.886719 C 73.800781 259.238281 74.085938 259.527344 74.441406 259.527344 C 74.792969 259.527344 75.078125 259.238281 75.078125 258.886719 Z M 72.015625 258.886719 L 72.015625 256.933594 C 72.015625 256.582031 71.726562 256.296875 71.375 256.296875 C 71.023438 256.296875 70.738281 256.582031 70.738281 256.933594 L 70.738281 258.886719 C 70.738281 259.238281 71.023438 259.527344 71.375 259.527344 C 71.726562 259.527344 72.015625 259.238281 72.015625 258.886719 Z M 68.953125 258.886719 L 68.953125 256.933594 C 68.953125 256.582031 68.667969 256.296875 68.316406 256.296875 C 67.964844 256.296875 67.679688 256.582031 67.679688 256.933594 L 67.679688 258.886719 C 67.679688 259.238281 67.964844 259.527344 68.316406 259.527344 C 68.667969 259.527344 68.953125 259.238281 68.953125 258.886719 Z M 65.890625 258.886719 L 65.890625 256.933594 C 65.890625 256.582031 65.605469 256.296875 65.25 256.296875 C 64.902344 256.296875 64.613281 256.582031 64.613281 256.933594 L 64.613281 258.886719 C 64.613281 259.238281 64.902344 259.527344 65.25 259.527344 C 65.605469 259.527344 65.890625 259.238281 65.890625 258.886719 Z M 62.828125 258.886719 L 62.828125 256.933594 C 62.828125 256.582031 62.542969 256.296875 62.191406 256.296875 C 61.839844 256.296875 61.554688 256.582031 61.554688 256.933594 L 61.554688 258.886719 C 61.554688 259.238281 61.839844 259.527344 62.191406 259.527344 C 62.542969 259.527344 62.828125 259.238281 62.828125 258.886719 Z M 59.765625 256.933594 C 59.765625 256.582031 59.480469 256.296875 59.128906 256.296875 C 58.777344 256.296875 58.492188 256.582031 58.492188 256.933594 L 58.492188 258.886719 C 58.492188 259.238281 58.777344 259.527344 59.128906 259.527344 C 59.480469 259.527344 59.765625 259.238281 59.765625 258.886719 Z M 60.210938 262.550781 L 78.765625 262.550781 C 79.121094 262.550781 79.40625 262.261719 79.40625 261.910156 C 79.40625 261.558594 79.121094 261.273438 78.765625 261.273438 L 60.210938 261.273438 C 59.855469 261.273438 59.570312 261.558594 59.570312 261.910156 C 59.570312 262.261719 59.855469 262.550781 60.210938 262.550781 Z M 191.492188 148.585938 C 190.332031 148.578125 189.195312 148.871094 188.285156 149.464844 C 187.988281 149.660156 187.90625 150.054688 188.097656 150.351562 C 188.292969 150.644531 188.6875 150.726562 188.984375 150.535156 C 189.667969 150.085938 190.574219 149.828125 191.464844 149.859375 C 192.351562 149.878906 193.242188 150.167969 193.902344 150.644531 C 194.011719 150.726562 194.144531 150.769531 194.273438 150.769531 C 194.472656 150.769531 194.664062 150.675781 194.792969 150.507812 C 194.996094 150.21875 194.933594 149.820312 194.652344 149.617188 C 193.773438 148.976562 192.652344 148.609375 191.492188 148.585938 Z M 175.628906 148.71875 C 174.46875 148.648438 173.316406 148.929688 172.375 149.492188 C 172.070312 149.671875 171.972656 150.0625 172.152344 150.367188 C 172.332031 150.667969 172.722656 150.765625 173.027344 150.585938 C 173.746094 150.160156 174.664062 149.949219 175.554688 149.992188 C 176.4375 150.042969 177.304688 150.359375 177.933594 150.855469 C 178.050781 150.949219 178.191406 150.996094 178.328125 150.996094 C 178.515625 150.996094 178.699219 150.914062 178.828125 150.757812 C 179.046875 150.480469 179 150.078125 178.726562 149.859375 C 177.886719 149.191406 176.785156 148.785156 175.628906 148.71875 Z M 177.519531 170.441406 C 177.464844 170.789062 177.699219 171.117188 178.042969 171.175781 C 178.203125 171.203125 180.734375 171.613281 183.589844 171.613281 C 185.074219 171.613281 186.652344 171.5 188.027344 171.167969 C 188.367188 171.082031 188.578125 170.738281 188.496094 170.394531 C 188.414062 170.054688 188.066406 169.839844 187.726562 169.925781 C 183.964844 170.839844 178.308594 169.925781 178.253906 169.917969 C 177.898438 169.855469 177.574219 170.097656 177.519531 170.441406 Z M 110.089844 235.390625 C 110.230469 235.453125 124.238281 241.800781 128.339844 246.148438 C 128.464844 246.28125 128.632812 246.347656 128.800781 246.347656 C 128.960938 246.347656 129.117188 246.292969 129.242188 246.175781 C 129.496094 245.933594 129.507812 245.53125 129.269531 245.273438 C 125 240.746094 111.199219 234.492188 110.617188 234.226562 C 110.292969 234.082031 109.917969 234.226562 109.773438 234.546875 C 109.625 234.867188 109.769531 235.246094 110.089844 235.390625 Z M 226.457031 247.292969 C 226.609375 247.292969 226.765625 247.234375 226.890625 247.121094 C 233.75 240.71875 247.835938 237.757812 247.976562 237.726562 C 248.320312 237.65625 248.542969 237.320312 248.472656 236.976562 C 248.402344 236.628906 248.0625 236.40625 247.71875 236.476562 C 247.128906 236.601562 233.144531 239.539062 226.019531 246.1875 C 225.761719 246.429688 225.746094 246.832031 225.988281 247.089844 C 226.113281 247.222656 226.285156 247.292969 226.457031 247.292969 Z M 198.488281 144.539062 C 198.550781 143.207031 197.304688 142.195312 196.011719 142.527344 L 183.941406 145.644531 C 183.941406 145.644531 176.203125 143.757812 171.167969 142.550781 C 169.230469 142.085938 167.375 143.5625 167.390625 145.554688 L 167.4375 150.9375 L 167.84375 151.949219 C 168.105469 151.585938 168.53125 151.347656 169.019531 151.347656 L 180.464844 151.347656 C 181.261719 151.347656 181.910156 151.996094 181.910156 152.792969 L 181.910156 152.867188 L 185.097656 152.867188 L 185.097656 152.648438 C 185.097656 151.933594 185.683594 151.347656 186.398438 151.347656 L 198.136719 151.347656 C 198.148438 151.347656 198.15625 151.351562 198.167969 151.351562 Z M 198.160156 154.875 C 198.148438 154.929688 198.132812 154.988281 198.121094 155.039062 L 197.992188 155.101562 L 198.109375 152.648438 L 186.398438 152.625 L 186.375 159.707031 L 198.136719 159.730469 L 198.160156 159.707031 Z M 180.632812 152.792969 C 180.632812 152.699219 180.558594 152.625 180.464844 152.625 L 169.019531 152.625 C 168.921875 152.625 168.847656 152.699219 168.847656 152.792969 L 168.847656 159.5625 C 168.847656 159.65625 168.921875 159.730469 169.019531 159.730469 L 180.464844 159.730469 C 180.558594 159.730469 180.632812 159.65625 180.632812 159.5625 Z M 201.722656 127.78125 C 204.46875 132.179688 204.785156 139.316406 202.332031 148.664062 C 202.074219 148.515625 201.816406 148.503906 201.5625 148.585938 L 199.4375 153.921875 L 199.4375 159.707031 C 199.4375 160.421875 198.851562 161.007812 198.136719 161.007812 L 186.398438 161.007812 C 185.683594 161.007812 185.097656 160.421875 185.097656 159.707031 L 185.097656 154.140625 L 181.910156 154.140625 L 181.910156 159.5625 C 181.910156 160.355469 181.261719 161.007812 180.464844 161.007812 L 169.019531 161.007812 C 168.222656 161.007812 167.574219 160.355469 167.574219 159.5625 L 167.574219 154.347656 C 167.453125 154.28125 167.355469 154.171875 167.300781 154.035156 L 165.152344 148.652344 C 164.710938 148.4375 164.265625 148.402344 163.84375 148.660156 C 162.136719 143.667969 160.582031 136.730469 162.582031 131.472656 C 169.664062 112.816406 191.476562 124.914062 191.476562 124.914062 C 191.476562 124.914062 198.5 122.621094 201.722656 127.78125 Z M 291.570312 68.636719 C 291.375 68.933594 291.457031 69.328125 291.753906 69.519531 C 291.859375 69.59375 291.984375 69.625 292.101562 69.625 C 292.3125 69.625 292.515625 69.523438 292.636719 69.339844 C 302.648438 54.121094 293.023438 43.761719 292.925781 43.65625 C 292.679688 43.40625 292.277344 43.394531 292.023438 43.640625 C 291.765625 43.882812 291.761719 44.285156 292.003906 44.539062 C 292.09375 44.632812 301.03125 54.257812 291.570312 68.636719 Z M 287.472656 67.585938 C 287.578125 67.65625 287.699219 67.691406 287.820312 67.691406 C 288.027344 67.691406 288.234375 67.589844 288.355469 67.402344 C 296.207031 55.46875 288.640625 47.324219 288.5625 47.246094 C 288.320312 46.992188 287.917969 46.980469 287.664062 47.226562 C 287.410156 47.464844 287.398438 47.871094 287.640625 48.125 C 287.925781 48.425781 294.570312 55.644531 287.289062 66.703125 C 287.09375 66.996094 287.175781 67.394531 287.472656 67.585938 Z M 283.234375 64.089844 C 283.34375 64.160156 283.464844 64.195312 283.585938 64.195312 C 283.792969 64.195312 283.996094 64.09375 284.117188 63.90625 C 289.238281 56.128906 284.277344 50.792969 284.226562 50.742188 C 283.980469 50.488281 283.582031 50.476562 283.328125 50.722656 C 283.074219 50.964844 283.0625 51.367188 283.300781 51.621094 C 283.480469 51.808594 287.597656 56.304688 283.054688 63.207031 C 282.859375 63.5 282.941406 63.894531 283.234375 64.089844 Z M 265.304688 70.074219 C 265.425781 70.074219 265.542969 70.039062 265.652344 69.96875 C 265.945312 69.773438 266.027344 69.378906 265.835938 69.085938 C 256.394531 54.742188 265.03125 45.378906 265.402344 44.984375 C 265.644531 44.730469 265.636719 44.328125 265.378906 44.085938 C 265.128906 43.84375 264.722656 43.851562 264.480469 44.105469 C 264.382812 44.207031 254.757812 54.566406 264.769531 69.785156 C 264.894531 69.972656 265.09375 70.074219 265.304688 70.074219 Z M 269.050781 67.851562 C 269.175781 68.039062 269.375 68.136719 269.585938 68.136719 C 269.703125 68.136719 269.824219 68.101562 269.933594 68.03125 C 270.226562 67.839844 270.308594 67.445312 270.117188 67.148438 C 262.839844 56.089844 269.476562 48.875 269.765625 48.574219 C 270.007812 48.320312 270 47.914062 269.742188 47.671875 C 269.488281 47.429688 269.085938 47.4375 268.84375 47.691406 C 268.765625 47.773438 261.195312 55.917969 269.050781 67.851562 Z M 273.820312 64.640625 C 273.9375 64.640625 274.058594 64.609375 274.171875 64.535156 C 274.464844 64.339844 274.546875 63.949219 274.351562 63.652344 C 269.808594 56.75 273.921875 52.261719 274.101562 52.070312 C 274.34375 51.816406 274.335938 51.414062 274.082031 51.167969 C 273.824219 50.925781 273.421875 50.933594 273.179688 51.191406 C 273.128906 51.242188 268.167969 56.578125 273.289062 64.351562 C 273.410156 64.539062 273.613281 64.640625 273.820312 64.640625 Z M 86.167969 253.074219 L 54.117188 253.074219 L 56.460938 255.4375 L 83.824219 255.4375 Z M 87.421875 216.4375 C 87.421875 214.675781 85.996094 213.25 84.234375 213.25 C 82.472656 213.25 81.046875 214.675781 81.046875 216.4375 L 81.046875 227.09375 L 76.867188 227.09375 L 76.867188 210.253906 C 76.867188 207.855469 74.925781 205.910156 72.523438 205.910156 L 68.339844 205.910156 C 65.941406 205.910156 63.996094 207.855469 63.996094 210.253906 L 63.996094 234.019531 L 60.628906 234.019531 L 60.628906 223.359375 C 60.628906 221.597656 59.203125 220.171875 57.441406 220.171875 C 55.679688 220.171875 54.253906 221.597656 54.253906 223.359375 L 54.253906 234.269531 C 54.253906 237.648438 57.003906 240.398438 60.382812 240.398438 L 63.996094 240.398438 L 63.996094 249.800781 L 76.867188 249.800781 L 76.867188 233.472656 L 81.292969 233.472656 C 84.671875 233.472656 87.421875 230.722656 87.421875 227.34375 Z M 294.910156 251.792969 L 294.910156 264.613281 L 296.84375 264.613281 C 297.175781 264.613281 297.46875 264.402344 297.582031 264.09375 L 299.40625 258.945312 C 300.15625 256.835938 300.269531 254.566406 299.738281 252.390625 C 299.652344 252.039062 299.34375 251.792969 298.980469 251.792969 Z M 294.910156 248.605469 L 298.980469 248.605469 C 300.816406 248.605469 302.402344 249.851562 302.835938 251.632812 C 303.511719 254.417969 303.367188 257.3125 302.410156 260.011719 L 300.585938 265.160156 C 300.023438 266.738281 298.523438 267.800781 296.84375 267.800781 L 294.910156 267.800781 L 294.910156 274.742188 C 294.910156 275.996094 293.890625 277.015625 292.632812 277.015625 L 273.925781 277.015625 C 272.667969 277.015625 271.648438 275.996094 271.648438 274.742188 L 271.648438 246.839844 L 294.910156 246.839844 Z M 189.972656 242.375 C 189.972656 238.546875 186.3125 235.445312 181.796875 235.445312 C 177.28125 235.445312 173.621094 238.546875 173.621094 242.375 C 173.621094 246.199219 177.28125 249.300781 181.796875 249.300781 C 186.3125 249.300781 189.972656 246.199219 189.972656 242.375 Z M 218.898438 211.84375 C 219.167969 204.527344 221.894531 198.898438 222.019531 198.648438 C 222.171875 198.332031 222.554688 198.203125 222.875 198.355469 C 223.1875 198.515625 223.320312 198.894531 223.164062 199.210938 C 223.132812 199.269531 220.453125 204.816406 220.175781 211.84375 L 222.574219 211.84375 C 224.246094 211.84375 225.589844 213.230469 225.53125 214.902344 L 223.769531 268.15625 C 223.71875 269.753906 222.410156 271.019531 220.8125 271.019531 L 140.367188 271.019531 C 138.769531 271.019531 137.464844 269.753906 137.410156 268.15625 L 135.648438 214.902344 C 135.59375 213.230469 136.933594 211.84375 138.609375 211.84375 L 143.039062 211.84375 C 143.207031 208.460938 140.882812 203.347656 140.859375 203.296875 C 140.710938 202.976562 140.847656 202.597656 141.167969 202.449219 C 141.488281 202.304688 141.867188 202.445312 142.015625 202.761719 C 142.117188 202.988281 144.464844 208.148438 144.316406 211.84375 L 179.636719 211.84375 L 179.476562 200.355469 C 179.460938 199.226562 180.066406 198.179688 181.058594 197.636719 L 182.152344 197.035156 L 175.160156 193.660156 C 173.867188 193.003906 172.734375 192.292969 171.765625 193.265625 L 168.449219 196.59375 C 167.828125 197.21875 166.765625 196.792969 166.746094 195.910156 L 166.515625 184.734375 C 166.28125 182.78125 170.589844 174.320312 170.589844 174.320312 C 170.589844 174.320312 172.683594 188.128906 182.453125 196.867188 L 184.570312 195.699219 C 194.101562 187.984375 195.925781 173.449219 195.925781 173.449219 C 195.925781 173.449219 199.707031 181.605469 199.488281 183.558594 L 200.121094 193.578125 C 200.175781 194.464844 199.171875 195.019531 198.453125 194.5 L 197.632812 193.914062 C 196.066406 192.785156 193.746094 192.523438 191.816406 193.253906 L 186.152344 195.570312 L 186.152344 211.84375 Z M 333.667969 277.160156 L 223.972656 277.160156 L 224.472656 273.101562 C 224.617188 272.542969 224.199219 271.996094 223.617188 271.996094 L 135.4375 271.996094 C 134.609375 271.996094 134.003906 272.78125 134.210938 273.582031 L 134.609375 277.160156 L 79.449219 277.160156 L 80.273438 275.230469 L 59.230469 275.230469 L 60.054688 277.160156 L 41.351562 277.160156 C 39.277344 277.160156 37.601562 278.839844 37.601562 280.910156 L 37.601562 285.988281 C 37.601562 288.0625 39.277344 289.742188 41.351562 289.742188 L 62.5 289.742188 L 62.5 307.476562 L 311.707031 307.476562 L 311.707031 289.742188 L 333.667969 289.742188 C 335.738281 289.742188 337.417969 288.0625 337.417969 285.988281 L 337.417969 280.910156 C 337.417969 278.839844 335.738281 277.160156 333.667969 277.160156 Z M 185.144531 165.542969 C 186.527344 165.042969 184.542969 161.160156 183.523438 159.34375 C 183.304688 158.949219 182.757812 158.988281 182.59375 159.40625 C 181.914062 161.164062 180.578125 164.710938 180.589844 165.410156 C 180.601562 166.347656 183.335938 166.199219 185.144531 165.542969 Z M 176.0625 153.5625 C 175.40625 153.5625 174.878906 154.371094 174.878906 155.371094 C 174.878906 156.375 175.40625 157.183594 176.0625 157.183594 C 176.714844 157.183594 177.242188 156.375 177.242188 155.371094 C 177.242188 154.371094 176.714844 153.5625 176.0625 153.5625 Z M 190.929688 153.5625 C 190.277344 153.5625 189.742188 154.371094 189.742188 155.371094 C 189.742188 156.375 190.277344 157.183594 190.929688 157.183594 C 191.578125 157.183594 192.109375 156.375 192.109375 155.371094 C 192.109375 154.371094 191.578125 153.5625 190.929688 153.5625 Z M 182.429688 186.265625 C 184.660156 186.941406 193.988281 177.570312 195.757812 173.644531 C 193.277344 176.648438 189.148438 178.199219 184.480469 178.199219 L 181.3125 178.199219 C 177.246094 178.199219 173.585938 177.023438 171.066406 174.730469 C 174.222656 178.429688 180.59375 185.703125 182.429688 186.265625 Z M 169.269531 172.59375 C 169.269531 172.59375 169.285156 172.613281 169.3125 172.644531 C 169.300781 172.628906 169.292969 172.613281 169.28125 172.59375 Z M 261.554688 87.085938 C 261.554688 88.027344 262.316406 88.785156 263.253906 88.785156 C 264.195312 88.785156 264.957031 88.027344 264.957031 87.085938 C 264.957031 86.148438 264.195312 85.386719 263.253906 85.386719 C 262.316406 85.386719 261.554688 86.148438 261.554688 87.085938 Z M 268.1875 87.085938 C 268.1875 88.027344 268.953125 88.785156 269.890625 88.785156 C 270.832031 88.785156 271.589844 88.027344 271.589844 87.085938 C 271.589844 86.148438 270.832031 85.386719 269.890625 85.386719 C 268.953125 85.386719 268.1875 86.148438 268.1875 87.085938 Z M 274.929688 87.085938 C 274.929688 88.027344 275.695312 88.785156 276.632812 88.785156 C 277.574219 88.785156 278.335938 88.027344 278.335938 87.085938 C 278.335938 86.148438 277.574219 85.386719 276.632812 85.386719 C 275.695312 85.386719 274.929688 86.148438 274.929688 87.085938 Z M 244.105469 87.085938 C 244.105469 86.148438 243.34375 85.386719 242.402344 85.386719 C 241.464844 85.386719 240.703125 86.148438 240.703125 87.085938 C 240.703125 88.027344 241.464844 88.785156 242.402344 88.785156 C 243.34375 88.785156 244.105469 88.027344 244.105469 87.085938 Z M 234.007812 91.777344 L 232.378906 91.777344 L 232.378906 81.933594 L 234.007812 81.933594 L 234.007812 79.558594 C 234.007812 79.132812 234.351562 78.792969 234.773438 78.792969 L 243.832031 78.792969 L 260.609375 74.605469 C 261.195312 74.460938 261.789062 74.816406 261.933594 75.402344 L 262.214844 76.523438 C 262.359375 77.109375 262.003906 77.703125 261.417969 77.847656 L 257.632812 78.792969 L 276.664062 78.792969 L 276.664062 56.191406 C 276.664062 55.585938 277.152344 55.097656 277.757812 55.097656 L 278.914062 55.097656 C 279.515625 55.097656 280.007812 55.585938 280.007812 56.191406 L 280.007812 78.792969 L 285.953125 78.792969 C 286.375 78.792969 286.71875 79.132812 286.71875 79.558594 L 286.71875 81.933594 L 288.226562 81.933594 L 288.226562 91.777344 L 286.71875 91.777344 L 286.71875 94.613281 C 286.71875 95.039062 286.375 95.378906 285.953125 95.378906 L 234.773438 95.378906 C 234.351562 95.378906 234.007812 95.039062 234.007812 94.613281 Z M 137.722656 92.855469 L 195.652344 92.855469 L 195.652344 58.644531 L 137.722656 58.644531 Z M 197.164062 75.75 C 197.164062 76.742188 197.96875 77.546875 198.960938 77.546875 C 199.949219 77.546875 200.757812 76.742188 200.757812 75.75 C 200.757812 74.757812 199.949219 73.957031 198.960938 73.957031 C 197.96875 73.957031 197.164062 74.757812 197.164062 75.75 Z M 130.480469 92.863281 L 130.480469 58.636719 C 130.480469 56.65625 132.085938 55.050781 134.066406 55.050781 L 199.34375 55.050781 C 201.324219 55.050781 202.929688 56.65625 202.929688 58.636719 L 202.929688 92.863281 C 202.929688 94.847656 201.324219 96.449219 199.34375 96.449219 L 134.066406 96.449219 C 132.085938 96.449219 130.480469 94.847656 130.480469 92.863281 Z M 45.859375 136.273438 L 45.859375 137.355469 L 46.941406 137.355469 L 46.941406 136.273438 Z M 48.972656 136.273438 L 48.972656 137.355469 L 50.054688 137.355469 L 50.054688 136.273438 Z M 72.742188 130.332031 C 72.742188 129.722656 72.46875 129.3125 71.917969 129.09375 C 72.402344 128.792969 72.644531 128.394531 72.644531 127.898438 C 72.644531 127.4375 72.480469 127.0625 72.148438 126.761719 C 71.816406 126.464844 71.269531 126.316406 70.511719 126.316406 L 69.210938 126.316406 L 69.210938 131.960938 L 70.882812 131.960938 C 71.441406 131.960938 71.890625 131.8125 72.230469 131.511719 C 72.574219 131.214844 72.742188 130.820312 72.742188 130.332031 Z M 68.414062 126.316406 L 65.355469 126.316406 L 65.355469 127.605469 L 66.234375 127.605469 L 66.234375 131.960938 L 67.53125 131.960938 L 67.53125 127.605469 L 68.414062 127.605469 Z M 63.777344 126.316406 L 61.839844 126.316406 L 61.839844 127.5 L 62.558594 127.5 L 62.558594 131.960938 L 63.777344 131.960938 Z M 89.785156 168.726562 L 84.636719 168.726562 C 84.695312 168.824219 84.742188 168.933594 84.742188 169.054688 L 84.742188 177.0625 C 84.742188 179.011719 83.976562 180.835938 82.585938 182.199219 C 81.226562 183.539062 79.441406 184.269531 77.542969 184.269531 C 77.496094 184.269531 77.453125 184.265625 77.410156 184.265625 L 54.679688 183.871094 C 50.839844 183.808594 47.730469 180.746094 47.605469 176.90625 L 47.441406 148.570312 L 45.136719 148.570312 C 44.738281 148.570312 44.410156 148.246094 44.410156 147.84375 L 44.410156 139.503906 L 47.734375 139.503906 L 47.734375 136.273438 L 48.351562 136.273438 L 48.351562 139.503906 L 51.675781 139.503906 L 51.675781 147.84375 C 51.675781 148.246094 51.351562 148.570312 50.953125 148.570312 L 48.714844 148.570312 L 48.878906 176.878906 C 48.984375 180.023438 51.539062 182.542969 54.703125 182.597656 L 77.433594 182.992188 C 79.027344 183.011719 80.546875 182.414062 81.691406 181.292969 C 82.835938 180.167969 83.464844 178.667969 83.464844 177.0625 L 83.464844 169.054688 C 83.464844 168.933594 83.511719 168.824219 83.570312 168.726562 L 59.902344 168.726562 C 58.675781 168.726562 57.683594 167.734375 57.683594 166.503906 L 57.683594 125.597656 C 57.683594 124.375 58.675781 123.378906 59.902344 123.378906 L 89.785156 123.378906 C 91.011719 123.378906 92.007812 124.375 92.007812 125.597656 L 92.007812 166.503906 C 92.007812 167.734375 91.011719 168.726562 89.785156 168.726562 Z M 70.597656 129.640625 L 70.488281 129.640625 L 70.488281 130.863281 C 70.816406 130.855469 71.054688 130.804688 71.21875 130.710938 C 71.382812 130.617188 71.460938 130.460938 71.460938 130.242188 C 71.460938 129.839844 71.171875 129.640625 70.597656 129.640625 Z M 71.347656 128.019531 C 71.347656 127.792969 71.277344 127.632812 71.140625 127.542969 C 71.007812 127.453125 70.789062 127.40625 70.488281 127.398438 L 70.488281 128.617188 C 71.058594 128.601562 71.347656 128.402344 71.347656 128.019531 Z M 49.664062 95.164062 C 50.105469 95.464844 50.660156 95.558594 51.179688 95.421875 L 52.214844 95.144531 C 52.1875 95.082031 52.160156 95.019531 52.136719 94.949219 L 45.101562 69.964844 C 45.089844 69.921875 45.085938 69.875 45.078125 69.832031 L 44.003906 70.179688 C 43.65625 70.296875 43.347656 70.503906 43.128906 70.796875 C 42.210938 72.003906 40.246094 75.753906 42.414062 84 C 44.214844 90.847656 48.035156 94.0625 49.664062 95.164062 Z M 58.605469 93.128906 C 58.628906 93.226562 58.648438 93.324219 58.652344 93.421875 L 59.039062 93.320312 C 60.035156 93.050781 60.621094 92.015625 60.332031 91.023438 L 53.949219 68.9375 C 53.65625 67.9375 52.59375 67.371094 51.601562 67.699219 L 51.394531 67.765625 C 51.464844 67.882812 51.527344 68.007812 51.566406 68.144531 Z M 89.503906 95.804688 L 90.539062 96.082031 C 91.058594 96.222656 91.609375 96.128906 92.054688 95.824219 C 93.679688 94.726562 97.503906 91.511719 99.304688 84.664062 C 101.472656 76.417969 99.511719 72.667969 98.59375 71.460938 C 98.371094 71.167969 98.0625 70.957031 97.710938 70.84375 L 96.640625 70.496094 C 96.632812 70.539062 96.628906 70.582031 96.617188 70.628906 L 89.582031 95.613281 C 89.558594 95.683594 89.53125 95.742188 89.503906 95.804688 Z M 81.386719 91.6875 L 87.769531 69.601562 C 88.058594 68.597656 89.125 68.039062 90.117188 68.359375 L 90.324219 68.429688 C 90.253906 68.546875 90.191406 68.667969 90.152344 68.808594 L 83.113281 93.792969 C 83.085938 93.890625 83.070312 93.988281 83.0625 94.085938 L 82.679688 93.980469 C 81.683594 93.714844 81.097656 92.679688 81.386719 91.6875 " />
    </g>
  </g>
</svg>